<?xml version="1.0" standalone="no"?>
<!DOCTYPE svg PUBLIC "-//W3C//DTD SVG 20010904//EN"
 "http://www.w3.org/TR/2001/REC-SVG-20010904/DTD/svg10.dtd">
<svg version="1.0" xmlns="http://www.w3.org/2000/svg"
 width="81.000000pt" height="83.000000pt" viewBox="0 0 81.000000 83.000000"
 preserveAspectRatio="xMidYMid meet">

<g transform="translate(0.000000,83.000000) scale(0.100000,-0.100000)"
fill="#000000" stroke="none">
<path d="M342 784 c-14 -10 -22 -25 -22 -45 0 -28 -2 -29 -43 -29 -77 0 -77 1
-77 -302 0 -244 1 -266 18 -281 16 -15 46 -17 209 -17 171 0 192 2 206 18 15
16 17 51 17 284 0 301 1 298 -78 298 -40 0 -42 2 -42 29 0 43 -31 61 -105 61
-39 0 -69 -6 -83 -16z m166 -46 l3 -28 -85 0 c-83 0 -86 1 -86 23 0 13 3 27 7
31 4 4 41 5 83 4 74 -3 75 -4 78 -30z m120 -65 c3 -10 -42 -13 -202 -13 -180
0 -205 2 -200 15 5 13 34 15 202 13 145 -2 196 -6 200 -15z m2 -263 l0 -230
-205 0 -205 0 0 230 0 230 205 0 205 0 0 -230z m-10 -265 c-18 -22 -372 -22
-390 0 -11 13 12 15 195 15 183 0 206 -2 195 -15z"/>
<path d="M407 547 c-17 -26 -87 -164 -87 -172 0 -3 23 -5 50 -5 l50 0 0 -57
c1 -54 2 -57 16 -38 16 20 94 170 94 180 0 3 -20 5 -45 5 l-45 0 0 49 c0 57
-11 71 -33 38z m50 -107 l41 -5 -29 -55 c-27 -54 -28 -54 -29 -22 0 31 -1 32
-45 32 l-45 0 28 56 c26 54 27 55 32 27 4 -24 10 -29 47 -33z"/>
</g>
</svg>
