<?xml version="1.0" standalone="no"?>
<!DOCTYPE svg PUBLIC "-//W3C//DTD SVG 20010904//EN"
 "http://www.w3.org/TR/2001/REC-SVG-20010904/DTD/svg10.dtd">
<svg version="1.0" xmlns="http://www.w3.org/2000/svg"
 width="69.000000pt" height="83.000000pt" viewBox="0 0 69.000000 83.000000"
 preserveAspectRatio="xMidYMid meet">

<g transform="translate(0.000000,83.000000) scale(0.100000,-0.100000)"
fill="#000000" stroke="none">
<path d="M141 742 c-21 -16 -22 -22 -17 -162 16 -439 20 -481 40 -496 15 -11
57 -14 177 -14 209 0 197 -12 204 190 3 85 7 224 10 309 5 135 4 155 -11 172
-16 17 -33 19 -199 19 -159 0 -186 -2 -204 -18z m388 -16 c9 -10 11 -54 7
-153 -3 -76 -8 -210 -11 -298 -4 -88 -11 -165 -17 -172 -13 -16 -304 -18 -328
-3 -12 7 -17 44 -22 172 -19 416 -20 439 -8 454 18 21 362 21 379 0z"/>
<path d="M190 415 c0 -32 2 -35 30 -35 28 0 30 3 30 35 0 32 -2 35 -30 35 -28
0 -30 -3 -30 -35z m40 0 c0 -8 -4 -15 -10 -15 -5 0 -10 7 -10 15 0 8 5 15 10
15 6 0 10 -7 10 -15z"/>
<path d="M293 443 c-23 -9 -15 -52 11 -59 65 -16 126 15 97 50 -13 15 -79 21
-108 9z m92 -28 c0 -5 -19 -11 -42 -13 -34 -3 -43 0 -43 13 0 13 9 16 43 13
23 -2 42 -7 42 -13z"/>
<path d="M430 414 c0 -34 1 -35 33 -32 28 3 32 7 35 36 3 31 2 32 -32 32 -35
0 -36 -1 -36 -36z m42 1 c0 -5 -5 -11 -11 -13 -6 -2 -11 4 -11 13 0 9 5 15 11
13 6 -2 11 -8 11 -13z"/>
<path d="M194 346 c-13 -33 0 -51 36 -51 32 0 35 2 35 30 0 27 -4 30 -33 33
-22 2 -34 -2 -38 -12z m56 -21 c0 -8 -9 -15 -20 -15 -11 0 -20 7 -20 15 0 8 9
15 20 15 11 0 20 -7 20 -15z"/>
<path d="M307 353 c-13 -12 -7 -51 9 -57 44 -17 81 7 69 44 -5 15 -15 20 -39
20 -18 0 -36 -3 -39 -7z m53 -28 c0 -8 -9 -15 -20 -15 -11 0 -20 7 -20 15 0 8
9 15 20 15 11 0 20 -7 20 -15z"/>
<path d="M417 353 c-13 -12 -7 -51 9 -57 44 -17 81 7 69 44 -5 15 -15 20 -39
20 -18 0 -36 -3 -39 -7z m58 -28 c0 -5 -10 -11 -22 -13 -16 -2 -23 2 -23 13 0
11 7 15 23 13 12 -2 22 -7 22 -13z"/>
<path d="M197 263 c-4 -3 -7 -17 -7 -30 0 -20 5 -23 40 -23 38 0 40 2 40 30 0
27 -3 30 -33 30 -19 0 -37 -3 -40 -7z m53 -23 c0 -5 -9 -10 -20 -10 -11 0 -20
5 -20 10 0 6 9 10 20 10 11 0 20 -4 20 -10z"/>
<path d="M307 263 c-4 -3 -7 -17 -7 -30 0 -20 5 -23 39 -23 44 0 55 10 46 40
-5 15 -15 20 -39 20 -18 0 -36 -3 -39 -7z m53 -23 c0 -5 -9 -10 -20 -10 -11 0
-20 5 -20 10 0 6 9 10 20 10 11 0 20 -4 20 -10z"/>
<path d="M417 263 c-4 -3 -7 -17 -7 -30 0 -20 5 -23 39 -23 44 0 55 10 46 40
-5 15 -15 20 -39 20 -18 0 -36 -3 -39 -7z m63 -23 c0 -5 -11 -10 -25 -10 -14
0 -25 5 -25 10 0 6 11 10 25 10 14 0 25 -4 25 -10z"/>
<path d="M190 150 c0 -28 2 -30 40 -30 38 0 40 2 40 30 0 28 -2 30 -40 30 -38
0 -40 -2 -40 -30z m60 0 c0 -5 -9 -10 -20 -10 -11 0 -20 5 -20 10 0 6 9 10 20
10 11 0 20 -4 20 -10z"/>
<path d="M307 173 c-4 -3 -7 -17 -7 -30 0 -20 5 -23 39 -23 40 0 56 16 45 45
-6 15 -64 21 -77 8z m53 -23 c0 -5 -9 -10 -20 -10 -11 0 -20 5 -20 10 0 6 9
10 20 10 11 0 20 -4 20 -10z"/>
<path d="M417 174 c-4 -4 -7 -18 -7 -31 0 -22 3 -24 43 -21 37 3 42 6 42 28 0
21 -5 25 -35 28 -20 2 -39 0 -43 -4z m63 -24 c0 -5 -11 -10 -25 -10 -14 0 -25
5 -25 10 0 6 11 10 25 10 14 0 25 -4 25 -10z"/>
</g>
</svg>
