<?xml version="1.0" standalone="no"?>
<!DOCTYPE svg PUBLIC "-//W3C//DTD SVG 20010904//EN"
 "http://www.w3.org/TR/2001/REC-SVG-20010904/DTD/svg10.dtd">
<svg version="1.0" xmlns="http://www.w3.org/2000/svg"
 width="82.000000pt" height="86.000000pt" viewBox="0 0 82.000000 86.000000"
 preserveAspectRatio="xMidYMid meet">

<g transform="translate(0.000000,86.000000) scale(0.100000,-0.100000)"
fill="#000000" stroke="none">
<path d="M564 792 c-19 -12 -44 -69 -44 -100 0 -21 -7 -32 -27 -43 -30 -16
-53 -64 -53 -109 0 -29 2 -30 45 -30 l45 0 0 -166 c0 -106 4 -173 12 -187 27
-52 71 -60 115 -23 l28 24 3 176 3 176 40 0 39 0 0 49 c0 43 -4 52 -35 80 -22
19 -35 40 -35 54 0 26 -27 88 -44 99 -6 4 -27 8 -46 8 -19 0 -40 -4 -46 -8z
m86 -27 c0 -11 -11 -15 -39 -15 -38 0 -57 10 -44 24 3 3 24 6 45 6 27 0 38 -4
38 -15z m25 -70 l0 -30 -65 0 -65 0 -3 33 -3 33 68 -3 68 -3 0 -30z m49 -76
c19 -15 26 -30 26 -55 l0 -34 -140 0 -140 0 0 32 c0 19 9 41 22 55 19 21 30
23 113 23 78 0 96 -3 119 -21z m-142 -281 l3 -173 25 0 25 0 3 173 c2 144 5
172 17 172 13 0 15 -26 15 -161 0 -155 -6 -193 -34 -211 -19 -13 -45 -9 -66
12 -18 18 -20 33 -20 190 0 143 2 170 15 170 12 0 15 -28 17 -172z m38 7 c0
-103 -4 -165 -10 -165 -6 0 -10 62 -10 165 0 103 4 165 10 165 6 0 10 -62 10
-165z"/>
<path d="M140 750 c-6 -11 -8 -25 -5 -30 4 -6 -1 -18 -10 -27 -9 -9 -14 -24
-12 -34 3 -10 -1 -23 -9 -30 -18 -15 -18 -43 0 -58 7 -6 11 -21 9 -34 -6 -28
12 -44 52 -49 28 -3 30 -7 33 -45 l3 -43 -55 0 -56 0 0 -48 c0 -53 19 -88 56
-102 18 -7 24 -17 25 -42 0 -18 8 -46 18 -63 16 -27 23 -30 66 -30 43 0 50 3
66 30 10 17 18 45 18 62 1 26 7 36 31 48 38 20 50 43 50 99 l0 46 -55 0 -55 0
0 45 c0 44 0 45 34 45 38 0 61 21 53 50 -3 10 1 24 9 31 18 15 18 43 0 59 -8
6 -12 18 -9 26 7 19 -25 54 -49 54 -11 0 -18 7 -18 18 0 33 -21 42 -102 42
-67 0 -79 -3 -88 -20z m168 -17 c-3 -15 -16 -19 -72 -21 -38 -2 -73 1 -79 7
-20 20 6 31 79 31 66 0 75 -2 72 -17z m59 -54 c6 -6 9 -18 6 -25 -4 -11 -31
-14 -118 -14 -114 0 -133 6 -121 35 4 12 28 15 114 15 66 0 112 -4 119 -11z
m28 -79 c0 -13 -24 -15 -142 -18 -115 -2 -143 0 -143 11 0 8 3 17 7 21 4 3 68
5 142 4 113 -3 136 -6 136 -18z m-20 -70 c0 -12 -21 -16 -114 -18 -111 -3
-141 4 -126 27 4 8 45 11 123 9 96 -2 117 -6 117 -18z m-85 -85 c0 -45 0 -45
-35 -45 -35 0 -35 0 -35 45 0 45 0 45 35 45 35 0 35 0 35 -45z m110 -95 c0
-37 -23 -71 -52 -77 -21 -4 -28 -11 -28 -29 0 -23 -3 -24 -65 -24 -63 0 -65 1
-65 25 0 18 -5 25 -20 25 -29 0 -60 36 -60 70 l0 30 145 0 c137 0 145 -1 145
-20z m-80 -160 c0 -6 -28 -10 -65 -10 -37 0 -65 4 -65 10 0 6 28 10 65 10 37
0 65 -4 65 -10z m-20 -45 c0 -11 -12 -15 -45 -15 -33 0 -45 4 -45 15 0 11 12
15 45 15 33 0 45 -4 45 -15z"/>
</g>
</svg>
