<?xml version="1.0" standalone="no"?>
<!DOCTYPE svg PUBLIC "-//W3C//DTD SVG 20010904//EN"
 "http://www.w3.org/TR/2001/REC-SVG-20010904/DTD/svg10.dtd">
<svg version="1.0" xmlns="http://www.w3.org/2000/svg"
 width="73.000000pt" height="81.000000pt" viewBox="0 0 73.000000 81.000000"
 preserveAspectRatio="xMidYMid meet">

<g transform="translate(0.000000,81.000000) scale(0.100000,-0.100000)"
fill="#000000" stroke="none">
<path d="M133 753 c-15 -6 -18 -83 -3 -83 16 0 12 -18 -15 -58 -14 -21 -32
-68 -42 -106 -14 -59 -15 -79 -5 -138 16 -92 15 -124 -5 -181 -16 -43 -16 -51
-2 -75 20 -36 70 -50 103 -28 23 15 28 15 60 -1 28 -13 41 -14 59 -6 14 7 29
8 38 2 8 -5 72 -9 142 -9 l129 0 29 29 29 29 0 208 0 207 -45 41 c-42 39 -61
86 -35 86 17 0 12 77 -6 84 -29 11 -199 7 -212 -6 -14 -14 -16 -78 -2 -78 21
0 9 -49 -17 -70 -33 -26 -39 -24 -66 24 -16 29 -19 40 -10 43 16 6 17 65 1 81
-12 12 -100 15 -125 5z m117 -38 c0 -24 -3 -25 -55 -25 -52 0 -55 1 -55 25 0
24 3 25 55 25 52 0 55 -1 55 -25z m310 0 l0 -25 -100 0 -100 0 0 25 0 25 100
0 100 0 0 -25z m-308 -103 c22 -47 26 -66 21 -109 -5 -51 -6 -52 -35 -46 -16
3 -47 0 -70 -8 -81 -26 -94 31 -36 153 30 61 36 67 63 67 27 0 33 -7 57 -57z
m288 38 c0 -18 -7 -20 -80 -20 -73 0 -80 2 -80 20 0 18 7 20 80 20 73 0 80 -2
80 -20z m29 -62 l36 -23 -72 -3 c-40 -2 -106 -2 -145 0 l-73 3 35 22 c50 32
167 33 219 1z m55 -240 l1 -188 -165 0 -165 0 1 188 c1 103 3 188 3 190 1 1
74 1 163 0 l161 -3 1 -187z m-373 82 c29 -16 23 -29 -8 -21 -18 5 -42 3 -66
-7 -30 -12 -43 -12 -67 -2 -42 17 -37 29 9 23 21 -3 47 0 57 6 24 13 50 14 75
1z m0 -50 c17 -10 19 -22 19 -126 0 -63 5 -124 10 -135 15 -28 -10 -35 -50
-14 -30 16 -35 16 -70 0 -66 -30 -107 14 -74 77 19 36 23 103 10 160 l-8 37
35 -6 c19 -3 43 0 53 6 24 13 50 14 75 1z m369 -255 c0 -25 -45 -35 -163 -35
-86 0 -118 4 -135 16 -12 8 -22 19 -22 25 0 5 66 9 160 9 137 0 160 -2 160
-15z"/>
<path d="M421 388 c-36 -49 -39 -70 -11 -98 38 -38 120 -13 120 38 0 20 -57
102 -70 102 -5 0 -22 -19 -39 -42z m68 -25 c19 -23 20 -29 7 -47 -16 -25 -42
-32 -61 -16 -20 16 -19 49 2 72 21 24 28 23 52 -9z"/>
</g>
</svg>
