<?xml version="1.0" standalone="no"?>
<!DOCTYPE svg PUBLIC "-//W3C//DTD SVG 20010904//EN"
 "http://www.w3.org/TR/2001/REC-SVG-20010904/DTD/svg10.dtd">
<svg version="1.0" xmlns="http://www.w3.org/2000/svg"
 width="78.000000pt" height="78.000000pt" viewBox="0 0 78.000000 78.000000"
 preserveAspectRatio="xMidYMid meet">

<g transform="translate(0.000000,78.000000) scale(0.100000,-0.100000)"
fill="#000000" stroke="none">
<path d="M522 713 c-18 -7 -82 -138 -82 -167 0 -28 25 -46 64 -46 19 0 26 -5
26 -19 0 -28 -26 -33 -62 -12 -19 11 -53 19 -81 19 -32 0 -55 6 -68 18 -21 19
-26 44 -8 44 6 0 9 14 7 33 l-3 32 -65 0 -65 0 -3 -32 c-2 -19 1 -33 7 -33 19
0 12 -24 -14 -49 -24 -22 -25 -29 -25 -130 0 -123 -10 -168 -45 -201 -20 -19
-25 -33 -25 -72 l0 -48 305 0 305 0 0 48 c0 58 -18 81 -84 106 -33 13 -46 23
-46 37 0 19 2 19 22 5 26 -18 38 -20 38 -7 0 6 -13 18 -30 28 -16 9 -30 25
-30 35 0 17 1 18 25 2 14 -9 28 -14 32 -11 8 9 -15 35 -38 42 -10 4 -19 15
-19 26 0 19 1 19 25 3 39 -25 44 -6 7 24 -40 34 -45 63 -6 37 39 -25 44 -7 6
23 -40 34 -41 52 -2 52 39 0 73 33 64 63 -10 34 -65 131 -82 145 -17 13 -28
14 -50 5z m76 -91 c19 -35 31 -70 28 -78 -4 -10 -24 -14 -80 -14 -41 0 -77 4
-81 10 -3 5 10 41 30 80 44 88 58 88 103 2z m-298 -37 c0 -11 -12 -15 -50 -15
-38 0 -50 4 -50 15 0 11 12 15 50 15 38 0 50 -4 50 -15z m-20 -59 c0 -13 7
-26 15 -30 25 -9 17 -25 -24 -45 -38 -20 -54 -45 -66 -108 -12 -61 -25 -34
-25 52 0 74 3 86 20 97 11 7 20 23 20 35 0 19 6 23 30 23 25 0 30 -4 30 -24z
m120 -66 c23 12 81 -15 74 -34 -8 -20 5 -20 34 0 20 14 22 14 22 -3 0 -10 -13
-27 -30 -36 -16 -10 -30 -22 -30 -28 0 -13 12 -11 38 7 20 14 22 14 22 -3 0
-10 -13 -27 -30 -36 -16 -10 -30 -22 -30 -28 0 -13 12 -11 38 7 20 14 22 14
22 -3 0 -10 -14 -27 -30 -36 -17 -10 -30 -22 -30 -28 0 -13 12 -11 38 7 21 14
22 14 22 -5 0 -12 -4 -21 -9 -21 -4 0 -20 -12 -35 -26 -18 -19 -26 -37 -26
-61 0 -33 1 -35 28 -28 15 3 33 13 41 20 13 13 17 13 30 1 9 -8 28 -18 44 -21
26 -7 27 -6 27 30 0 37 0 38 20 20 11 -10 20 -31 20 -47 l0 -28 -285 0 -285 0
0 24 c0 48 28 65 109 68 49 2 76 7 79 16 3 9 -14 12 -62 12 -36 0 -66 4 -66 9
0 4 5 23 11 40 14 40 41 51 125 51 36 0 64 4 64 10 0 6 -29 10 -66 10 l-66 0
6 32 c3 18 13 42 20 54 20 30 95 65 115 54 9 -4 23 -5 31 0z m120 -316 c-14
-15 -40 -19 -40 -5 0 4 10 21 23 37 22 28 22 28 25 6 2 -13 -2 -30 -8 -38z
m80 25 c21 -38 5 -53 -24 -23 -21 21 -21 55 -1 48 9 -4 20 -15 25 -25z"/>
</g>
</svg>
