<?xml version="1.0" standalone="no"?>
<!DOCTYPE svg PUBLIC "-//W3C//DTD SVG 20010904//EN"
 "http://www.w3.org/TR/2001/REC-SVG-20010904/DTD/svg10.dtd">
<svg version="1.0" xmlns="http://www.w3.org/2000/svg"
 width="81.000000pt" height="85.000000pt" viewBox="0 0 81.000000 85.000000"
 preserveAspectRatio="xMidYMid meet">

<g transform="translate(0.000000,85.000000) scale(0.100000,-0.100000)"
fill="#000000" stroke="none">
<path d="M180 790 c-19 -19 -20 -33 -20 -323 0 -258 2 -306 16 -325 15 -22 19
-22 240 -22 211 0 225 1 244 20 19 19 20 33 20 325 0 292 -1 306 -20 325 -19
19 -33 20 -240 20 -207 0 -221 -1 -240 -20z m457 -8 c18 -11 30 -591 13 -621
-10 -20 -19 -21 -229 -21 -178 0 -221 3 -231 14 -9 11 -10 90 -6 316 3 166 8
306 12 311 6 11 424 12 441 1z"/>
<path d="M240 410 c0 -6 38 -10 95 -10 57 0 95 4 95 10 0 6 -38 10 -95 10 -57
0 -95 -4 -95 -10z"/>
<path d="M240 360 c0 -6 38 -10 95 -10 57 0 95 4 95 10 0 6 -38 10 -95 10 -57
0 -95 -4 -95 -10z"/>
<path d="M240 300 c0 -6 38 -10 95 -10 57 0 95 4 95 10 0 6 -38 10 -95 10 -57
0 -95 -4 -95 -10z"/>
</g>
</svg>
